<svg id="svg" version="1.1" width="800" height="634" xmlns="http://www.w3.org/2000/svg"><path d="M384.084 8.648 C 375.470 10.514,365.932 15.289,357.750 21.829 C 354.038 24.797,351.000 27.524,351.000 27.890 C 351.000 28.255,349.600 30.087,347.888 31.961 C 341.474 38.984,335.576 52.243,333.414 64.500 C 331.101 77.611,331.453 83.419,336.020 107.500 C 337.063 113.000,338.655 121.550,339.556 126.500 C 340.458 131.450,342.017 139.550,343.020 144.500 C 344.024 149.450,345.601 157.325,346.526 162.000 C 347.450 166.675,349.028 174.550,350.031 179.500 C 351.035 184.450,352.598 192.550,353.506 197.500 C 354.413 202.450,355.980 210.550,356.987 215.500 C 359.149 226.129,362.501 243.300,364.601 254.500 C 365.425 258.900,366.964 266.775,368.020 272.000 C 369.076 277.225,370.662 285.550,371.545 290.500 C 372.429 295.450,374.016 303.194,375.074 307.708 L 376.997 315.916 374.525 319.558 C 373.165 321.562,371.754 324.796,371.388 326.745 C 370.832 329.710,371.263 340.570,372.251 348.500 C 372.426 349.906,371.835 350.594,370.260 350.818 C 367.768 351.172,367.747 351.134,363.643 338.500 C 356.002 314.977,354.066 311.543,346.207 307.569 C 342.741 305.817,342.341 305.109,339.382 295.500 C 337.091 288.063,336.354 260.889,337.827 238.182 C 339.755 208.453,335.880 185.339,325.223 163.000 C 313.068 137.521,297.472 122.991,272.712 114.082 C 263.891 110.908,246.523 111.105,236.837 114.489 C 227.906 117.610,222.765 120.608,216.156 126.550 C 203.186 138.211,195.086 157.968,195.026 178.091 C 194.999 187.150,198.044 204.251,200.546 209.089 C 201.346 210.635,202.000 212.386,202.000 212.979 C 202.000 213.572,203.604 217.438,205.565 221.569 C 215.978 243.513,237.017 266.157,263.500 283.924 C 266.250 285.769,268.950 287.794,269.500 288.424 C 270.050 289.054,273.200 291.632,276.500 294.153 C 284.171 300.012,295.421 311.873,300.293 319.236 C 303.823 324.570,304.014 325.233,303.057 328.789 C 302.442 331.073,302.371 333.806,302.881 335.584 C 304.068 339.724,307.870 347.109,310.045 349.500 C 311.858 351.493,311.801 351.500,292.682 351.610 C 263.933 351.775,194.823 353.990,184.013 355.093 C 171.198 356.401,167.674 357.619,163.430 362.206 C 159.804 366.125,153.732 377.951,152.489 383.516 C 152.122 385.157,151.227 388.525,150.500 391.000 C 149.773 393.475,148.931 396.625,148.629 398.000 C 148.087 400.471,147.960 400.500,137.692 400.500 C 126.274 400.500,124.832 401.073,122.557 406.517 L 121.230 409.694 115.365 408.905 C 112.139 408.471,104.550 407.405,98.500 406.536 C 92.450 405.667,82.781 404.516,77.013 403.979 C 71.245 403.442,63.937 402.533,60.773 401.959 C 57.608 401.385,49.053 400.833,41.760 400.733 L 28.500 400.551 22.060 404.016 C 15.447 407.575,10.709 412.852,8.326 419.316 C 3.851 431.453,11.829 446.595,25.441 451.805 C 34.262 455.180,41.316 454.868,90.500 448.924 C 99.850 447.794,109.938 446.449,112.917 445.935 C 120.683 444.595,120.765 444.618,122.899 448.803 C 125.456 453.814,128.659 455.149,139.581 455.753 L 148.663 456.255 150.529 463.877 C 155.625 484.703,163.080 496.458,172.693 498.832 C 179.410 500.491,287.386 503.954,333.250 503.982 C 349.613 503.992,363.000 504.205,363.000 504.456 C 363.000 504.706,361.903 506.527,360.563 508.502 C 359.223 510.477,356.349 515.785,354.176 520.296 C 334.065 562.060,328.000 576.106,328.000 580.920 C 328.000 585.151,331.863 591.644,336.015 594.391 C 338.183 595.826,340.460 597.000,341.074 597.000 C 341.689 597.000,343.386 597.651,344.846 598.446 C 354.857 603.898,359.211 604.463,365.699 601.153 C 369.806 599.058,373.000 594.222,373.000 590.099 C 373.000 586.888,371.304 587.583,368.388 591.990 C 365.893 595.760,361.272 599.000,358.389 599.000 C 356.315 599.000,338.714 590.829,336.411 588.796 C 332.847 585.652,331.996 580.937,333.986 575.358 C 336.422 568.526,352.092 534.828,359.496 520.500 C 366.663 506.630,367.489 504.051,365.594 501.460 C 364.309 499.703,361.932 499.582,323.866 499.349 C 301.665 499.213,267.320 498.606,247.545 498.000 C 227.769 497.394,207.584 496.879,202.688 496.856 C 197.792 496.833,194.172 496.439,194.643 495.981 C 198.808 491.935,491.934 490.876,580.979 494.585 C 601.968 495.459,600.668 496.749,578.639 496.906 C 569.916 496.968,562.491 497.192,562.139 497.403 C 561.431 497.828,495.977 499.030,475.500 498.993 C 460.352 498.966,460.920 498.954,446.022 499.620 C 434.257 500.146,432.000 500.867,432.000 504.099 C 432.000 505.119,437.795 517.777,444.877 532.227 C 467.412 578.203,468.473 581.210,464.193 586.944 C 461.108 591.076,443.309 599.545,439.643 598.625 C 435.352 597.548,431.938 593.833,427.947 585.894 C 423.385 576.820,421.407 575.658,422.360 582.611 C 423.829 593.329,432.666 603.273,440.722 603.273 C 443.330 603.273,448.010 601.622,455.049 598.218 C 468.105 591.905,470.391 589.262,470.340 580.537 C 470.303 574.167,470.889 575.663,456.808 546.000 C 454.066 540.225,448.270 528.413,443.928 519.750 L 436.032 504.000 460.266 503.977 C 504.032 503.936,600.752 500.793,615.918 498.918 C 629.158 497.282,631.584 495.423,638.000 482.000 C 640.654 476.449,644.601 463.953,645.504 458.250 L 646.176 454.000 656.548 454.000 C 667.634 454.000,667.636 453.999,671.107 448.148 C 672.965 445.014,673.337 444.844,676.798 445.536 C 678.834 445.944,683.650 446.611,687.500 447.020 C 691.350 447.429,700.125 448.511,707.000 449.425 C 747.456 454.803,761.346 455.388,768.756 452.024 C 778.193 447.741,783.495 441.443,785.885 431.680 C 788.479 421.077,782.025 409.679,770.045 403.710 C 765.082 401.237,763.599 400.999,753.054 400.988 C 746.699 400.982,736.550 401.637,730.500 402.445 C 708.531 405.376,687.336 407.925,679.966 408.521 L 672.432 409.130 670.706 405.510 C 668.401 400.675,664.137 399.000,654.139 399.000 C 645.744 399.000,644.987 398.558,645.010 393.668 C 645.020 391.459,641.807 381.050,639.355 375.349 C 638.610 373.616,638.000 371.951,638.000 371.649 C 638.000 370.592,632.159 362.479,629.841 360.317 C 626.413 357.119,623.312 356.220,611.823 355.091 C 599.179 353.848,540.834 351.903,509.256 351.671 C 496.472 351.577,486.010 351.189,486.006 350.809 C 486.003 350.429,486.479 349.822,487.065 349.460 C 487.651 349.098,489.678 345.541,491.569 341.557 C 494.549 335.279,494.974 333.447,494.754 327.816 C 494.614 324.242,495.027 320.234,495.671 318.909 C 496.316 317.584,498.722 312.534,501.018 307.688 C 507.713 293.558,519.326 283.253,533.427 278.932 C 536.074 278.120,540.660 277.942,547.503 278.384 C 558.825 279.116,560.056 278.571,562.555 271.707 C 563.197 269.943,565.399 264.000,567.447 258.500 C 569.496 253.000,572.696 244.000,574.559 238.500 C 576.422 233.000,579.803 223.100,582.074 216.500 C 584.344 209.900,586.569 203.150,587.017 201.500 C 587.466 199.850,589.946 192.650,592.528 185.500 C 595.110 178.350,597.589 171.150,598.035 169.500 C 598.482 167.850,600.056 163.125,601.532 159.000 C 603.009 154.875,604.582 150.150,605.028 148.500 C 605.473 146.850,608.893 136.950,612.627 126.500 C 618.528 109.985,619.418 106.584,619.437 100.500 C 619.455 94.469,619.044 92.823,616.473 88.609 C 613.187 83.224,611.079 81.922,591.000 72.872 C 584.675 70.021,575.360 65.757,570.301 63.396 C 557.363 57.360,554.714 56.778,547.647 58.423 C 540.982 59.974,534.883 65.093,531.092 72.317 C 529.885 74.618,526.224 80.775,522.956 86.000 C 519.688 91.225,516.701 96.175,516.318 97.000 C 515.935 97.825,514.244 100.761,512.561 103.524 C 508.668 109.915,508.468 110.250,500.354 124.000 C 496.622 130.325,492.495 137.075,491.184 139.000 C 489.873 140.925,488.386 143.400,487.880 144.500 C 487.374 145.600,485.633 148.525,484.012 151.000 C 482.391 153.475,479.911 157.525,478.501 160.000 C 473.656 168.505,461.088 189.501,460.244 190.500 C 459.779 191.050,459.094 192.175,458.721 193.000 C 458.348 193.825,457.020 196.146,455.771 198.157 C 453.142 202.390,447.563 211.930,444.752 217.000 C 443.685 218.925,442.404 220.927,441.906 221.450 C 441.408 221.972,441.000 223.837,441.000 225.594 C 441.000 229.028,443.066 231.610,451.143 238.269 C 454.033 240.651,457.137 244.698,459.581 249.269 C 463.444 256.492,463.448 256.512,463.385 268.000 C 463.321 279.638,462.642 282.656,457.313 295.000 C 453.084 304.796,451.930 306.588,449.185 307.624 C 443.697 309.696,440.332 316.309,431.820 341.750 C 428.834 350.678,428.621 351.000,425.721 351.000 L 422.715 351.000 423.353 340.250 C 424.069 328.184,423.204 322.911,419.940 319.436 L 417.713 317.065 420.434 302.283 C 421.931 294.152,423.982 283.675,424.992 279.000 C 426.002 274.325,427.511 266.900,428.345 262.500 C 429.179 258.100,430.831 249.550,432.017 243.500 C 433.202 237.450,434.787 229.350,435.540 225.500 C 437.671 214.599,440.765 198.932,442.898 188.245 C 443.968 182.885,445.591 174.450,446.505 169.500 C 447.419 164.550,449.003 156.450,450.026 151.500 C 451.048 146.550,452.606 138.450,453.487 133.500 C 454.368 128.550,455.951 120.225,457.005 115.000 C 458.059 109.775,459.691 101.675,460.633 97.000 C 462.894 85.773,462.891 67.572,460.627 59.500 C 455.954 42.840,445.997 27.995,433.583 19.181 C 425.102 13.159,417.905 10.066,408.536 8.417 C 398.922 6.725,392.690 6.784,384.084 8.648 M393.000 13.500 C 393.000 14.325,392.622 15.000,392.161 15.000 C 390.663 15.000,388.761 20.295,386.772 30.000 C 383.631 45.323,383.298 89.933,385.862 152.000 C 387.009 179.775,388.640 221.625,389.485 245.000 C 390.331 268.375,391.262 293.688,391.555 301.250 C 391.893 309.971,391.728 315.000,391.103 315.000 C 389.399 315.000,389.134 313.697,388.042 299.933 C 386.187 276.553,383.973 251.154,381.990 230.500 C 380.933 219.500,379.354 202.400,378.481 192.500 C 377.608 182.600,376.031 165.950,374.977 155.500 C 368.205 88.352,367.463 75.765,369.434 61.500 C 370.269 55.450,371.636 48.025,372.471 45.000 C 373.902 39.812,374.547 38.224,378.777 29.460 C 379.725 27.497,382.413 23.556,384.750 20.702 C 387.087 17.849,389.000 15.173,389.000 14.757 C 389.000 14.341,389.788 13.993,390.750 13.985 C 392.246 13.972,392.282 13.828,391.000 13.000 C 389.718 12.172,389.754 12.028,391.250 12.015 C 392.212 12.007,393.000 12.675,393.000 13.500 M404.729 12.604 C 404.397 12.936,403.534 12.972,402.813 12.683 C 402.015 12.364,402.252 12.127,403.417 12.079 C 404.471 12.036,405.061 12.272,404.729 12.604 M379.653 19.308 C 373.441 25.677,367.496 35.954,366.354 42.301 C 366.037 44.061,365.045 47.975,364.150 51.000 C 361.855 58.755,361.952 94.783,364.325 116.500 C 366.472 136.137,369.582 164.969,371.500 183.000 C 372.290 190.425,373.831 204.825,374.926 215.000 C 376.021 225.175,377.632 240.700,378.505 249.500 C 379.379 258.300,380.973 273.150,382.047 282.500 C 383.121 291.850,384.260 302.949,384.577 307.165 C 385.426 318.434,385.508 318.496,399.541 318.328 C 408.032 318.227,411.490 317.825,412.079 316.872 C 412.698 315.871,413.061 316.028,413.595 317.528 C 413.982 318.613,415.076 320.400,416.026 321.500 C 419.963 326.057,420.560 332.539,418.394 347.175 C 418.094 349.196,418.361 351.806,418.986 352.973 C 419.972 354.816,420.868 355.057,425.778 354.798 C 432.446 354.447,431.958 355.133,438.066 337.500 C 444.189 319.825,446.719 315.095,452.000 311.447 C 455.930 308.732,457.035 307.081,460.720 298.419 C 466.561 284.688,468.381 275.945,467.754 264.619 C 467.001 251.009,464.470 245.544,454.250 235.456 C 449.487 230.754,446.000 226.483,446.000 225.350 C 446.000 224.271,452.353 212.838,460.117 199.944 C 483.962 160.346,535.403 74.362,537.166 71.159 C 539.344 67.201,546.379 62.822,551.463 62.261 C 554.969 61.873,558.946 63.383,581.689 73.734 C 596.092 80.290,608.613 86.264,609.512 87.010 C 611.685 88.813,614.800 95.029,615.488 98.934 C 615.870 101.100,614.813 105.709,612.084 113.787 C 562.916 259.291,558.836 270.937,556.193 273.318 C 554.821 274.554,553.551 274.661,549.500 273.883 C 538.920 271.853,524.947 275.670,514.718 283.385 C 506.375 289.677,500.939 296.759,495.440 308.500 C 489.935 320.255,488.912 324.098,490.121 328.476 C 491.111 332.062,489.950 335.372,483.860 346.314 C 482.183 349.328,481.956 350.607,482.777 352.411 C 483.663 354.354,484.836 354.790,490.659 355.340 C 494.421 355.695,504.925 355.993,514.000 356.003 C 538.869 356.029,610.982 358.670,611.917 359.590 C 612.146 359.815,605.171 360.044,596.417 360.097 C 587.662 360.151,568.125 360.369,553.000 360.582 C 412.429 362.562,286.344 362.512,219.750 360.450 C 207.238 360.063,197.000 359.424,197.000 359.031 C 197.000 358.242,222.444 357.299,266.000 356.473 C 281.675 356.176,298.692 355.679,303.816 355.368 C 312.310 354.853,313.225 354.599,314.186 352.491 C 315.072 350.546,314.578 348.982,311.066 342.620 C 307.082 335.402,306.924 334.793,307.569 329.096 C 308.351 322.184,307.494 320.364,297.808 308.371 C 290.980 299.916,284.804 294.473,268.000 282.099 C 247.982 267.358,245.369 265.141,233.481 252.811 C 214.525 233.149,203.402 211.682,199.955 188.103 C 197.864 173.803,200.189 160.339,207.138 146.500 C 216.759 127.342,234.797 116.000,255.643 116.000 C 265.323 116.000,275.961 118.959,283.946 123.872 C 286.742 125.592,289.501 127.000,290.078 127.000 C 290.654 127.000,295.746 131.496,301.394 136.991 C 310.221 145.578,312.377 148.351,316.749 156.741 C 323.718 170.113,328.403 181.817,331.064 192.500 C 333.731 203.210,334.674 230.027,333.242 254.469 C 332.187 272.480,333.283 289.800,336.124 299.992 C 338.615 308.933,338.991 309.460,344.681 311.977 C 348.623 313.721,349.456 314.715,352.425 321.216 C 354.254 325.222,357.641 334.119,359.950 340.987 C 362.260 347.855,364.678 353.811,365.325 354.222 C 365.971 354.633,368.422 354.976,370.771 354.985 C 376.552 355.005,377.669 352.661,376.119 343.760 C 374.495 334.436,374.732 328.992,376.935 325.000 C 377.997 323.075,379.395 320.375,380.041 319.000 C 380.687 317.625,381.620 315.713,382.115 314.751 C 382.677 313.661,382.467 309.332,381.559 303.251 C 380.758 297.888,379.365 288.100,378.463 281.500 C 377.561 274.900,375.994 264.325,374.980 258.000 C 373.967 251.675,372.424 241.775,371.553 236.000 C 369.679 223.584,366.661 204.190,364.005 187.500 C 362.955 180.900,361.379 170.325,360.505 164.000 C 359.018 153.252,357.738 144.424,353.330 114.500 C 352.112 106.230,351.553 96.283,351.531 82.500 C 351.503 64.277,351.708 61.834,353.842 55.000 C 357.035 44.774,361.845 35.907,369.344 26.423 C 372.812 22.038,375.488 17.965,375.291 17.373 C 374.926 16.277,381.150 13.274,384.153 13.097 C 385.155 13.038,383.386 15.481,379.653 19.308 M415.764 14.654 C 418.529 15.710,419.914 16.783,419.592 17.620 C 419.149 18.776,425.429 27.806,428.550 30.500 C 430.168 31.897,436.470 42.703,438.425 47.433 C 440.975 53.601,443.891 65.982,444.606 73.667 C 445.237 80.457,443.869 92.272,439.465 118.086 C 438.659 122.809,438.000 127.942,438.000 129.493 C 438.000 131.044,437.145 137.306,436.099 143.407 C 434.309 153.854,432.287 167.261,428.469 194.000 C 427.566 200.325,426.001 210.675,424.991 217.000 C 423.981 223.325,422.407 233.900,421.492 240.500 C 420.577 247.100,419.006 257.900,418.000 264.500 C 416.994 271.100,415.418 281.900,414.497 288.500 C 411.130 312.639,410.466 316.345,409.442 316.686 C 408.072 317.143,408.308 314.592,413.993 267.500 C 416.239 248.893,419.234 221.836,421.409 200.500 C 422.250 192.250,423.835 176.950,424.931 166.500 C 426.026 156.050,427.606 140.300,428.440 131.500 C 429.274 122.700,430.731 107.850,431.678 98.500 C 433.785 77.706,433.770 68.206,431.613 56.500 C 427.703 35.277,424.227 28.079,412.179 16.259 C 408.468 12.617,409.372 12.213,415.764 14.654 M400.291 21.500 C 404.098 35.528,405.009 77.864,403.022 148.500 C 402.465 168.300,401.306 209.250,400.445 239.500 C 399.585 269.750,398.795 298.964,398.690 304.419 C 398.572 310.568,398.083 314.476,397.403 314.701 C 395.850 315.216,395.015 300.259,394.989 271.500 C 394.977 258.300,394.080 217.575,392.996 181.000 C 391.912 144.425,391.020 99.115,391.013 80.311 C 391.001 48.319,391.162 45.171,393.521 31.311 C 394.907 23.165,396.272 15.862,396.553 15.083 C 397.341 12.903,398.494 14.883,400.291 21.500 M415.892 29.000 C 425.869 47.618,428.598 71.903,424.772 108.000 C 423.869 116.525,422.398 131.600,421.505 141.500 C 420.611 151.400,419.186 166.025,418.337 174.000 C 417.488 181.975,416.439 193.225,416.006 199.000 C 415.573 204.775,414.729 214.225,414.131 220.000 C 413.532 225.775,412.134 240.175,411.024 252.000 C 406.683 298.240,405.014 314.319,404.501 314.832 C 404.207 315.126,403.509 314.909,402.949 314.349 C 402.259 313.659,402.254 307.870,402.931 296.415 C 403.482 287.112,404.182 270.500,404.487 259.500 C 404.792 248.500,405.931 215.650,407.018 186.500 C 411.033 78.855,411.371 60.193,409.628 42.327 C 408.609 31.882,407.333 24.268,406.026 20.827 C 404.912 17.897,404.018 15.050,404.039 14.500 C 404.109 12.665,412.905 23.425,415.892 29.000 M372.000 18.500 C 372.000 18.775,371.775 19.000,371.500 19.000 C 371.225 19.000,371.000 18.775,371.000 18.500 C 371.000 18.225,371.225 18.000,371.500 18.000 C 371.775 18.000,372.000 18.225,372.000 18.500 M378.000 18.500 C 378.000 18.775,378.225 19.000,378.500 19.000 C 378.775 19.000,379.000 18.775,379.000 18.500 C 379.000 18.225,378.775 18.000,378.500 18.000 C 378.225 18.000,378.000 18.225,378.000 18.500 M432.319 23.880 C 437.089 27.463,443.627 36.299,447.946 45.000 C 456.327 61.881,457.820 79.477,452.995 104.500 C 450.725 116.272,448.060 130.632,446.593 139.000 C 445.773 143.675,444.157 152.675,443.000 159.000 C 441.843 165.325,440.273 174.100,439.510 178.500 C 437.780 188.478,434.410 207.355,432.013 220.500 C 431.010 226.000,429.424 235.000,428.488 240.500 C 427.552 246.000,425.982 254.775,425.000 260.000 C 424.018 265.225,422.452 274.000,421.521 279.500 C 420.589 285.000,418.985 293.325,417.955 298.000 C 416.925 302.675,415.794 308.443,415.442 310.817 C 415.090 313.192,414.556 314.889,414.256 314.589 C 413.694 314.027,414.706 306.679,417.986 287.500 C 419.020 281.450,420.604 271.775,421.506 266.000 C 422.407 260.225,423.985 250.550,425.013 244.500 C 426.041 238.450,427.599 229.000,428.477 223.500 C 429.354 218.000,430.926 208.550,431.970 202.500 C 433.013 196.450,434.602 186.775,435.500 181.000 C 437.040 171.099,437.921 165.773,442.860 136.500 C 443.974 129.900,445.617 119.550,446.513 113.500 C 447.408 107.450,448.784 99.003,449.570 94.730 C 452.749 77.454,450.344 57.416,443.404 43.372 C 439.918 36.316,434.637 29.579,426.000 21.168 C 423.111 18.355,422.937 17.978,425.000 19.010 C 426.375 19.698,429.668 21.890,432.319 23.880 M364.809 25.127 C 361.889 28.497,358.494 32.381,357.264 33.759 C 354.338 37.035,348.691 48.928,346.467 56.500 C 344.000 64.898,343.929 88.875,346.331 102.500 C 348.116 112.625,350.673 128.276,353.520 146.500 C 355.091 156.561,357.313 170.022,360.987 191.750 C 362.080 198.213,363.685 208.225,364.553 214.000 C 365.421 219.775,366.988 229.675,368.036 236.000 C 372.209 261.190,372.996 266.772,372.912 270.558 C 372.830 274.203,372.727 274.048,371.538 268.500 C 370.050 261.557,364.918 232.472,360.510 206.000 C 359.640 200.775,358.061 191.775,357.000 186.000 C 355.939 180.225,354.364 171.225,353.499 166.000 C 352.635 160.775,351.087 152.225,350.061 147.000 C 349.035 141.775,347.444 133.000,346.526 127.500 C 345.608 122.000,344.025 113.000,343.007 107.500 C 338.044 80.659,337.791 77.381,339.841 66.500 C 343.373 47.757,355.883 26.246,366.500 20.659 C 368.150 19.791,369.639 19.062,369.809 19.040 C 369.979 19.018,367.729 21.757,364.809 25.127 M222.000 152.752 C 218.621 154.440,218.502 154.690,218.565 160.000 C 218.620 164.681,219.824 168.107,226.647 183.000 C 231.056 192.625,235.527 202.677,236.582 205.337 C 239.402 212.448,242.105 215.000,246.817 215.000 C 249.312 215.000,251.725 214.217,253.476 212.840 C 255.977 210.873,256.183 210.214,255.786 205.437 C 255.440 201.266,252.980 195.379,243.768 176.681 C 230.511 149.773,229.715 148.898,222.000 152.752 M251.748 155.163 C 245.804 157.334,246.729 163.100,256.455 184.500 C 260.454 193.300,264.987 203.425,266.529 207.000 C 270.429 216.044,272.017 217.522,277.701 217.400 C 281.439 217.320,282.799 216.772,284.673 214.594 C 288.791 209.807,288.958 210.333,272.722 176.902 C 266.806 164.721,261.492 155.019,260.534 154.652 C 258.235 153.769,255.059 153.954,251.748 155.163 M229.580 158.537 C 230.393 160.483,235.770 171.538,241.529 183.105 C 247.288 194.672,252.000 205.240,252.000 206.589 C 252.000 209.596,247.763 211.971,245.239 210.379 C 243.267 209.135,242.856 208.388,238.982 199.000 C 237.279 194.875,234.822 189.250,233.521 186.500 C 221.114 160.274,220.717 159.012,224.123 156.627 C 227.376 154.348,227.907 154.533,229.580 158.537 M284.255 157.200 C 279.980 158.326,277.559 162.044,278.391 166.204 C 278.741 167.954,282.805 177.736,287.422 187.943 C 292.039 198.149,296.587 208.525,297.528 211.000 C 298.470 213.475,300.336 216.512,301.676 217.750 C 304.853 220.684,310.755 220.767,314.365 217.927 C 319.074 214.223,318.204 210.974,305.412 184.491 C 299.039 171.296,293.160 159.757,292.348 158.850 C 290.361 156.630,288.139 156.177,284.255 157.200 M264.145 170.011 C 267.267 176.330,272.886 187.959,276.630 195.854 C 283.245 209.801,283.382 210.248,281.469 211.646 C 278.637 213.717,274.789 212.943,273.287 210.000 C 272.585 208.625,270.600 204.350,268.876 200.500 C 267.152 196.650,264.496 190.800,262.974 187.500 C 260.236 181.562,258.243 177.086,254.123 167.623 C 252.955 164.940,252.000 162.150,252.000 161.423 C 252.000 159.808,254.954 157.944,256.984 158.278 C 257.800 158.411,261.022 163.691,264.145 170.011 M293.594 170.750 C 296.173 176.113,301.625 187.378,305.708 195.784 C 309.792 204.190,312.991 211.803,312.817 212.701 C 312.643 213.599,311.236 214.755,309.692 215.270 C 306.532 216.323,303.558 214.422,302.414 210.618 C 302.064 209.453,301.185 207.150,300.461 205.500 C 295.815 194.912,294.185 191.340,289.425 181.311 C 283.462 168.750,281.964 163.270,284.118 161.906 C 287.542 159.737,288.913 161.017,293.594 170.750 M373.662 278.250 C 373.385 278.938,373.158 278.375,373.158 277.000 C 373.158 275.625,373.385 275.063,373.662 275.750 C 373.940 276.438,373.940 277.563,373.662 278.250 M374.667 282.667 C 374.300 283.033,374.000 282.733,374.000 282.000 C 374.000 281.267,374.300 280.967,374.667 281.333 C 375.033 281.700,375.033 282.300,374.667 282.667 M238.500 365.100 C 300.691 366.546,433.587 366.587,536.757 365.193 C 582.549 364.575,620.703 364.332,621.544 364.655 C 624.763 365.890,628.592 376.808,631.661 393.500 C 634.307 407.889,634.297 447.210,631.643 461.500 C 628.338 479.301,624.726 488.739,620.314 491.099 C 618.504 492.068,613.072 492.082,594.758 491.165 C 500.854 486.464,284.055 486.460,196.279 491.158 C 179.945 492.032,174.729 492.020,173.626 491.105 C 172.838 490.451,170.981 487.437,169.498 484.407 C 167.024 479.350,166.016 475.682,162.787 460.000 C 162.108 456.702,161.647 443.488,161.635 427.000 C 161.617 401.878,161.819 398.549,163.965 388.500 C 166.320 377.477,169.803 368.134,172.865 364.627 C 174.313 362.969,175.473 362.826,183.000 363.381 C 187.675 363.726,212.650 364.500,238.500 365.100 M162.383 376.998 C 154.455 404.370,155.406 460.876,164.172 483.380 C 167.344 491.522,165.275 489.866,161.085 480.908 C 158.922 476.283,156.032 468.076,154.662 462.669 C 153.293 457.263,151.928 452.595,151.629 452.296 C 151.331 451.998,146.803 451.605,141.567 451.424 C 130.585 451.045,128.542 450.232,126.543 445.448 C 124.770 441.206,122.169 440.124,116.117 441.110 C 101.385 443.511,44.200 450.001,37.788 450.000 C 32.461 450.000,23.053 446.276,19.162 442.629 C 12.449 436.335,10.094 428.779,12.552 421.413 C 14.665 415.083,19.110 410.390,26.000 407.216 C 32.731 404.115,42.115 403.875,61.000 406.320 C 98.052 411.116,116.864 413.389,119.947 413.442 C 122.760 413.489,123.805 412.893,125.630 410.202 C 126.859 408.388,128.042 406.373,128.259 405.724 C 128.519 404.943,132.422 404.415,139.795 404.162 C 146.530 403.932,151.280 403.330,151.803 402.640 C 152.280 402.013,153.245 398.800,153.947 395.500 C 154.650 392.200,155.879 387.475,156.678 385.000 C 158.101 380.595,164.160 367.827,164.613 368.280 C 164.739 368.406,163.736 372.329,162.383 376.998 M637.038 382.000 C 638.543 386.125,640.300 392.053,640.942 395.173 C 641.584 398.293,642.648 401.279,643.305 401.807 C 643.962 402.336,648.728 402.962,653.897 403.199 C 662.862 403.610,663.401 403.765,665.642 406.565 C 666.933 408.179,667.992 410.047,667.995 410.715 C 668.006 413.360,671.857 414.128,679.779 413.063 C 688.893 411.837,695.978 410.993,730.000 407.081 C 747.204 405.103,756.801 404.408,759.500 404.945 C 769.369 406.909,777.314 412.701,780.449 420.218 C 786.468 434.649,773.151 450.000,754.614 450.000 C 748.600 450.000,710.195 445.984,697.500 444.027 C 680.790 441.452,671.760 440.660,670.163 441.629 C 669.248 442.184,667.675 444.294,666.668 446.319 L 664.835 450.000 655.352 450.000 C 650.136 450.000,645.039 450.444,644.024 450.987 C 642.905 451.586,641.901 453.651,641.470 456.237 C 640.000 465.056,632.731 485.065,631.459 483.792 C 631.176 483.509,631.378 482.136,631.908 480.741 C 633.941 475.395,637.064 454.747,637.947 440.819 C 639.368 418.387,636.896 391.335,631.944 375.145 C 630.875 371.649,630.002 368.499,630.004 368.145 C 630.014 366.324,634.648 375.451,637.038 382.000 M631.000 485.500 C 631.000 485.775,630.775 486.000,630.500 486.000 C 630.225 486.000,630.000 485.775,630.000 485.500 C 630.000 485.225,630.225 485.000,630.500 485.000 C 630.775 485.000,631.000 485.225,631.000 485.500 M358.000 547.252 C 355.266 548.617,349.229 559.931,345.425 570.817 C 343.619 575.983,343.387 577.811,344.227 580.222 C 346.004 585.320,354.734 587.724,358.854 584.250 C 361.941 581.647,371.000 560.048,371.000 555.292 C 371.000 548.788,363.819 544.347,358.000 547.252 M434.209 548.080 C 432.399 548.456,429.990 549.604,428.856 550.631 C 425.750 553.441,426.860 559.471,433.034 573.332 C 438.820 586.324,440.233 587.643,447.116 586.480 C 452.018 585.652,454.487 582.802,454.364 578.115 C 454.270 574.506,446.495 554.579,443.529 550.345 C 441.796 547.870,438.762 547.133,434.209 548.080 M365.921 552.564 C 367.621 554.178,366.482 558.790,361.991 568.475 C 360.455 571.789,358.917 575.453,358.573 576.618 C 358.230 577.783,357.038 579.561,355.924 580.569 C 354.029 582.284,353.725 582.296,351.199 580.769 C 349.715 579.871,348.350 578.406,348.166 577.512 C 347.814 575.803,354.842 558.831,358.227 553.215 C 360.309 549.759,362.750 549.552,365.921 552.564 M440.136 554.000 C 441.827 557.026,447.838 570.610,449.117 574.294 C 450.763 579.038,449.540 581.376,445.183 581.811 C 442.371 582.091,441.877 581.702,440.114 577.811 C 435.951 568.624,431.000 556.603,431.000 555.684 C 431.000 552.433,438.490 551.052,440.136 554.000 M392.338 571.999 C 388.999 573.345,388.479 576.330,388.774 592.448 C 389.103 610.423,389.391 611.000,398.033 611.000 C 401.778 611.000,404.166 610.505,404.943 609.568 C 407.021 607.064,408.036 595.574,407.127 584.827 C 406.385 576.057,405.951 574.379,404.022 572.816 C 401.648 570.894,396.049 570.502,392.338 571.999 M400.617 575.765 C 402.044 576.704,403.352 599.449,402.212 603.500 C 401.521 605.956,400.765 606.559,398.039 606.824 C 396.051 607.018,394.372 606.615,393.870 605.824 C 392.510 603.679,392.800 577.600,394.200 576.200 C 395.536 574.864,398.901 574.636,400.617 575.765 M416.618 580.000 C 416.329 580.825,415.960 588.250,415.797 596.500 C 415.549 609.025,415.192 612.009,413.634 614.582 C 410.735 619.369,408.617 620.155,397.874 620.428 C 381.038 620.858,379.221 618.429,379.047 595.250 C 379.012 590.636,378.640 589.000,377.625 589.000 C 375.797 589.000,375.000 593.453,375.000 603.665 C 375.000 613.413,376.911 618.305,382.335 622.442 C 385.474 624.836,386.410 625.000,396.958 625.000 C 410.621 625.000,414.687 623.325,417.968 616.345 C 419.725 612.607,420.000 610.015,420.000 597.202 C 420.000 585.931,419.658 581.917,418.571 580.441 C 417.388 578.833,417.053 578.757,416.618 580.000 " stroke="black" fill="#000000" fill-rule="evenodd"/></svg>